<svg xmlns="http://www.w3.org/2000/svg" xmlns:xlink="http://www.w3.org/1999/xlink" width="122.634" height="63.642" viewBox="0 0 122.634 63.642"><defs><linearGradient id="a" x1="0.5" x2="0.5" y2="1" gradientUnits="objectBoundingBox"><stop offset="0" stop-color="#37a5f9"/><stop offset="1" stop-color="#324ca1"/></linearGradient></defs><g transform="translate(-43.84 -238.372)"><text transform="translate(46.625 269.372)" fill="#949494" font-size="29" font-family="SegoeUI, Segoe UI"><tspan x="0" y="0">POS TIVE</tspan></text><text transform="translate(43.84 295.014)" fill="#3363bb" font-size="27" font-family="SegoeUI, Segoe UI"><tspan x="0" y="0">PAK STAN</tspan></text><path d="M156.613,342.949H33.979S60.2,334.16,73.312,334.16c15.108,0,23.9-.34,54.767,0C140.366,334.3,156.613,338.479,156.613,342.949Z" transform="translate(9.861 -64.839)" fill="#f4f4f4"/><path d="M13.679,44.531,21.2,42.167l-1.236,3.654L12.819,48.24Zm4-15.632L0,28.872l3.494-5.465H19.135l4.375-16.54L30.543,4.5l-4.7,18.91H42.312L39.05,28.933,24.47,28.91,21.394,41.271l-7.577,2.241ZM24.726,2.238,31.751,0,30.693,3.5,23.6,6.14Z" transform="translate(81.967 247.569)" stroke="rgba(0,0,0,0)" stroke-miterlimit="10" stroke-width="1" fill="url(#a)"/></g></svg>